<svg width="20" height="20" viewBox="0 0 20 20" fill="none" xmlns="http://www.w3.org/2000/svg">
<path fill-rule="evenodd" clip-rule="evenodd" d="M0.5148 10C0.514799 9.44772 0.962515 9 1.5148 9L9.00008 9L9.00008 1.51472C9.00008 0.962434 9.4478 0.514719 10.0001 0.514719C10.5524 0.514719 11.0001 0.962434 11.0001 1.51472L11.0001 9H18.4854C19.0376 9 19.4854 9.44772 19.4854 10C19.4854 10.5523 19.0376 11 18.4854 11H11.0001L11.0001 18.4853C11.0001 19.0376 10.5524 19.4853 10.0001 19.4853C9.4478 19.4853 9.00008 19.0376 9.00008 18.4853L9.00008 11L1.5148 11C0.962515 11 0.514799 10.5523 0.5148 10Z" fill="white"/>
</svg>
